<?xml version="1.0" encoding="UTF-8"?>
<!--
  Grimoire navigation icon.
  Nextcloud tints nav icons via CSS (currentColor / invert), so this is a
  single-colour white glyph on a transparent background: a closed spellbook
  with a clasp and an arcane sigil on the cover.
-->
<svg xmlns="http://www.w3.org/2000/svg" viewBox="0 0 16 16" width="16" height="16" fill="#ffffff">
  <!-- Book cover + spine -->
  <path d="M3 1.6c-.55 0-1 .45-1 1V13c0 .77.62 1.4 1.4 1.4H13c.28 0 .5-.22.5-.5s-.22-.5-.5-.5H3.4a.4.4 0 0 1 0-.8H13c.28 0 .5-.22.5-.5V2.1c0-.28-.22-.5-.5-.5H3Zm.6 1.2H12v8.4H3.6a1.4 1.4 0 0 0-.6.13V3.4c0-.33.27-.6.6-.6Z"/>
  <!-- Clasp -->
  <path d="M12.2 5.4h1.3a.4.4 0 0 1 .4.4v1.1a.4.4 0 0 1-.4.4h-1.3V5.4Z"/>
  <!-- Arcane sigil: star inside a ring -->
  <path d="M7.55 4.2 8.4 6l1.95.2-1.46 1.3.43 1.92L7.55 8.4 5.78 9.42l.43-1.92L4.75 6.2 6.7 6l.85-1.8Zm0 1.9-.32.68-.74.07.56.5-.17.73.67-.39.67.39-.16-.73.55-.5-.74-.07-.32-.68Z"/>
</svg>
